<svg xmlns="http://www.w3.org/2000/svg" viewBox="0 0 512 512" width="64" height="64">
  <path fill="#E4405F" d="M349.33 69.33h-186.7C95.17 69.33 69.33 95.17 69.33 162.67v186.7c0 67.5 25.84 93.34 93.34 93.34h186.7c67.5 0 93.34-25.84 93.34-93.34v-186.7c0-67.5-25.84-93.34-93.34-93.34zM464 162.67v186.7c0 91.68-49.64 141.33-141.34 141.33h-186.7c-91.7 0-141.34-49.65-141.34-141.33v-186.7c0-91.68 49.64-141.34 141.34-141.34h186.7c91.7 0 141.34 49.66 141.34 141.34z"/>
  <circle cx="256" cy="256" r="80" fill="#fff"/>
  <circle cx="393.6" cy="118.4" r="17.07" fill="#fff"/>
</svg>
