<svg xmlns="http://www.w3.org/2000/svg" viewBox="0 0 448 512" width="32" height="32">
  <path fill="white" d="M224,202.66A53.34,53.34,0,1,0,277.34,256,53.38,53.38,0,0,0,224,202.66Zm124.71-41a54,54,0,0,0-30.8-30.8C293.4,122,224,122,224,122s-69.4,0-93.91,8.89a54,54,0,0,0-30.8,30.8C91.4,146.6,91.4,216,91.4,216s0,69.4,8.89,93.91a54,54,0,0,0,30.8,30.8C154.6,358,224,358,224,358s69.4,0,93.91-8.89a54,54,0,0,0,30.8-30.8C356.6,285.4,356.6,216,356.6,216S356.6,146.6,348.71,161.66ZM224,338.66c-61.83,0-112-50.18-112-112S162.17,114.66,224,114.66,336,164.84,336,226.66,285.83,338.66,224,338.66Zm117.71-191a17.89,17.89,0,1,1-17.89-17.89A17.89,17.89,0,0,1,341.71,147.71Z"/>
</svg>
