<svg xmlns="http://www.w3.org/2000/svg" viewBox="0 0 32 32" width="64" height="64">
  <path fill="#25D366" d="M16 0C7.163 0 0 7.164 0 16c0 2.827.736 5.469 2.027 7.774L0 32l8.547-2.24A15.938 15.938 0 0016 32c8.837 0 16-7.163 16-16S24.837 0 16 0zM16 29c-2.389 0-4.669-.64-6.667-1.854l-.478-.285-5.062 1.327 1.348-4.922-.31-.508A12.955 12.955 0 013 16c0-7.18 5.82-13 13-13s13 5.82 13 13-5.82 13-13 13zm7.008-9.115c-.387-.194-2.287-1.128-2.64-1.257-.353-.129-.61-.194-.868.194-.258.387-1 1.257-1.226 1.514-.226.258-.452.29-.839.097-.387-.194-1.635-.602-3.116-1.922-1.151-1.026-1.928-2.291-2.154-2.678-.226-.387-.024-.596.17-.79.174-.174.387-.452.581-.678.194-.226.258-.387.387-.646.129-.258.065-.484-.032-.678-.097-.194-.868-2.095-1.19-2.877-.313-.752-.634-.65-.868-.663-.226-.012-.484-.015-.742-.015-.258 0-.678.097-1.033.484s-1.353 1.32-1.353 3.218c0 1.899 1.383 3.733 1.576 3.988.194.258 2.72 4.158 6.597 5.832 3.877 1.673 3.877 1.113 4.576 1.048.699-.065 2.287-.934 2.609-1.837.322-.903.322-1.677.226-1.837-.097-.161-.355-.258-.742-.452z"/>
</svg>
